<svg width="536" height="346" viewBox="0 0 536 346" fill="none" xmlns="http://www.w3.org/2000/svg">
<mask id="mask0" style="mask-type:alpha" maskUnits="userSpaceOnUse" x="0" y="0" width="536" height="346">
<path d="M528 0H8C3.58172 0 0 3.58172 0 8V338C0 342.418 3.58172 346 8 346H528C532.418 346 536 342.418 536 338V8C536 3.58172 532.418 0 528 0Z" fill="white"/>
</mask>
<g mask="url(#mask0)">
<path d="M528 0H8C3.58172 0 0 3.58172 0 8V338C0 342.418 3.58172 346 8 346H528C532.418 346 536 342.418 536 338V8C536 3.58172 532.418 0 528 0Z" fill="#8AC0FF"/>
<path fill-rule="evenodd" clip-rule="evenodd" d="M-3.52979 0.197021H543.47V59.197H-3.52979V0.197021Z" fill="#242A45"/>
<path opacity="0.245" d="M38.4702 46.197C47.3068 46.197 54.4702 39.0336 54.4702 30.197C54.4702 21.3605 47.3068 14.197 38.4702 14.197C29.6337 14.197 22.4702 21.3605 22.4702 30.197C22.4702 39.0336 29.6337 46.197 38.4702 46.197Z" fill="white"/>
<path opacity="0.104" d="M499.47 46.197C508.307 46.197 515.47 39.0336 515.47 30.197C515.47 21.3605 508.307 14.197 499.47 14.197C490.634 14.197 483.47 21.3605 483.47 30.197C483.47 39.0336 490.634 46.197 499.47 46.197Z" fill="white"/>
<path opacity="0.75" d="M186.47 20.197H72.4702C70.8134 20.197 69.4702 21.5402 69.4702 23.197C69.4702 24.8539 70.8134 26.197 72.4702 26.197H186.47C188.127 26.197 189.47 24.8539 189.47 23.197C189.47 21.5402 188.127 20.197 186.47 20.197Z" fill="white"/>
<path opacity="0.25" d="M130.47 34.197H72.4702C70.8134 34.197 69.4702 35.5402 69.4702 37.197C69.4702 38.8539 70.8134 40.197 72.4702 40.197H130.47C132.127 40.197 133.47 38.8539 133.47 37.197C133.47 35.5402 132.127 34.197 130.47 34.197Z" fill="white"/>
<path d="M309 146H64C59.5817 146 56 149.582 56 154V454C56 458.418 59.5817 462 64 462H309C313.418 462 317 458.418 317 454V154C317 149.582 313.418 146 309 146Z" fill="black"/>
<path d="M471 146H359C354.582 146 351 149.582 351 154V454C351 458.418 354.582 462 359 462H471C475.418 462 479 458.418 479 454V154C479 149.582 475.418 146 471 146Z" fill="white"/>
<path opacity="0.5" d="M251.47 184.197H137.47C135.813 184.197 134.47 185.54 134.47 187.197C134.47 188.854 135.813 190.197 137.47 190.197H251.47C253.127 190.197 254.47 188.854 254.47 187.197C254.47 185.54 253.127 184.197 251.47 184.197Z" fill="white"/>
<path d="M104.47 213.197C113.307 213.197 120.47 206.034 120.47 197.197C120.47 188.36 113.307 181.197 104.47 181.197C95.6337 181.197 88.4702 188.36 88.4702 197.197C88.4702 206.034 95.6337 213.197 104.47 213.197Z" fill="#6AC6D6"/>
<path opacity="0.25" d="M196.47 201.197H138.47C136.813 201.197 135.47 202.54 135.47 204.197C135.47 205.854 136.813 207.197 138.47 207.197H196.47C198.127 207.197 199.47 205.854 199.47 204.197C199.47 202.54 198.127 201.197 196.47 201.197Z" fill="white"/>
<path d="M104.47 269.197C113.307 269.197 120.47 262.034 120.47 253.197C120.47 244.36 113.307 237.197 104.47 237.197C95.6337 237.197 88.4702 244.36 88.4702 253.197C88.4702 262.034 95.6337 269.197 104.47 269.197Z" fill="#A47ED4"/>
<path opacity="0.5" d="M252.47 243.197H138.47C136.813 243.197 135.47 244.54 135.47 246.197C135.47 247.854 136.813 249.197 138.47 249.197H252.47C254.127 249.197 255.47 247.854 255.47 246.197C255.47 244.54 254.127 243.197 252.47 243.197Z" fill="white"/>
<path opacity="0.25" d="M196.47 257.197H138.47C136.813 257.197 135.47 258.54 135.47 260.197C135.47 261.854 136.813 263.197 138.47 263.197H196.47C198.127 263.197 199.47 261.854 199.47 260.197C199.47 258.54 198.127 257.197 196.47 257.197Z" fill="white"/>
<path d="M104.47 325.197C113.307 325.197 120.47 318.034 120.47 309.197C120.47 300.36 113.307 293.197 104.47 293.197C95.6337 293.197 88.4702 300.36 88.4702 309.197C88.4702 318.034 95.6337 325.197 104.47 325.197Z" fill="#EC7878"/>
<path opacity="0.5" d="M252.47 299.197H138.47C136.813 299.197 135.47 300.54 135.47 302.197C135.47 303.854 136.813 305.197 138.47 305.197H252.47C254.127 305.197 255.47 303.854 255.47 302.197C255.47 300.54 254.127 299.197 252.47 299.197Z" fill="white"/>
<path opacity="0.25" d="M196.47 313.197H138.47C136.813 313.197 135.47 314.54 135.47 316.197C135.47 317.854 136.813 319.197 138.47 319.197H196.47C198.127 319.197 199.47 317.854 199.47 316.197C199.47 314.54 198.127 313.197 196.47 313.197Z" fill="white"/>
</g>
<path d="M287 85H66C61.5817 85 58 88.5817 58 93V111C58 115.418 61.5817 119 66 119H287C291.418 119 295 115.418 295 111V93C295 88.5817 291.418 85 287 85Z" fill="white"/>
<path opacity="0.25" d="M458 173H376C374.343 173 373 174.343 373 176C373 177.657 374.343 179 376 179H458C459.657 179 461 177.657 461 176C461 174.343 459.657 173 458 173Z" fill="#242A45"/>
<path opacity="0.25" d="M458 193H376C374.343 193 373 194.343 373 196C373 197.657 374.343 199 376 199H458C459.657 199 461 197.657 461 196C461 194.343 459.657 193 458 193Z" fill="#242A45"/>
<path opacity="0.25" d="M458 213H376C374.343 213 373 214.343 373 216C373 217.657 374.343 219 376 219H458C459.657 219 461 217.657 461 216C461 214.343 459.657 213 458 213Z" fill="#242A45"/>
<path opacity="0.25" d="M458 233H376C374.343 233 373 234.343 373 236C373 237.657 374.343 239 376 239H458C459.657 239 461 237.657 461 236C461 234.343 459.657 233 458 233Z" fill="#242A45"/>
<path opacity="0.25" d="M458 267H376C374.343 267 373 268.343 373 270C373 271.657 374.343 273 376 273H458C459.657 273 461 271.657 461 270C461 268.343 459.657 267 458 267Z" fill="#242A45"/>
<path opacity="0.25" d="M458 287H376C374.343 287 373 288.343 373 290C373 291.657 374.343 293 376 293H458C459.657 293 461 291.657 461 290C461 288.343 459.657 287 458 287Z" fill="#242A45"/>
<path opacity="0.25" d="M458 307H376C374.343 307 373 308.343 373 310C373 311.657 374.343 313 376 313H458C459.657 313 461 311.657 461 310C461 308.343 459.657 307 458 307Z" fill="#242A45"/>
</svg>
