<svg width="536" height="346" viewBox="0 0 536 346" fill="none" xmlns="http://www.w3.org/2000/svg">
<mask id="mask0" style="mask-type:alpha" maskUnits="userSpaceOnUse" x="0" y="0" width="536" height="346">
<path d="M528 0H8C3.58172 0 0 3.58172 0 8V338C0 342.418 3.58172 346 8 346H528C532.418 346 536 342.418 536 338V8C536 3.58172 532.418 0 528 0Z" fill="white"/>
</mask>
<g mask="url(#mask0)">
<path d="M528 0H8C3.58172 0 0 3.58172 0 8V338C0 342.418 3.58172 346 8 346H528C532.418 346 536 342.418 536 338V8C536 3.58172 532.418 0 528 0Z" fill="#BDDCFF"/>
<path fill-rule="evenodd" clip-rule="evenodd" d="M-3.52979 0.197021H543.47V59.197H-3.52979V0.197021Z" fill="#242A45"/>
<path opacity="0.245" d="M38.4702 46.197C47.3068 46.197 54.4702 39.0336 54.4702 30.197C54.4702 21.3605 47.3068 14.197 38.4702 14.197C29.6337 14.197 22.4702 21.3605 22.4702 30.197C22.4702 39.0336 29.6337 46.197 38.4702 46.197Z" fill="white"/>
<path opacity="0.104" d="M499.47 46.197C508.307 46.197 515.47 39.0336 515.47 30.197C515.47 21.3605 508.307 14.197 499.47 14.197C490.634 14.197 483.47 21.3605 483.47 30.197C483.47 39.0336 490.634 46.197 499.47 46.197Z" fill="white"/>
<path opacity="0.75" d="M186.47 20.197H72.4702C70.8134 20.197 69.4702 21.5402 69.4702 23.197C69.4702 24.8539 70.8134 26.197 72.4702 26.197H186.47C188.127 26.197 189.47 24.8539 189.47 23.197C189.47 21.5402 188.127 20.197 186.47 20.197Z" fill="white"/>
<path opacity="0.25" d="M130.47 34.197H72.4702C70.8134 34.197 69.4702 35.5402 69.4702 37.197C69.4702 38.8539 70.8134 40.197 72.4702 40.197H130.47C132.127 40.197 133.47 38.8539 133.47 37.197C133.47 35.5402 132.127 34.197 130.47 34.197Z" fill="white"/>
</g>
<mask id="mask1" style="mask-type:alpha" maskUnits="userSpaceOnUse" x="71" y="0" width="350" height="346">
<path d="M413 0H79C74.5817 0 71 3.58172 71 8V338C71 342.418 74.5817 346 79 346H413C417.418 346 421 342.418 421 338V8C421 3.58172 417.418 0 413 0Z" fill="white"/>
</mask>
<g mask="url(#mask1)">
<path d="M327 85H106C101.582 85 98 88.5817 98 93V111C98 115.418 101.582 119 106 119H327C331.418 119 335 115.418 335 111V93C335 88.5817 331.418 85 327 85Z" fill="white"/>
<path d="M327 133H106C101.582 133 98 136.582 98 141V159C98 163.418 101.582 167 106 167H327C331.418 167 335 163.418 335 159V141C335 136.582 331.418 133 327 133Z" fill="white"/>
<path d="M327 181H106C101.582 181 98 184.582 98 189V207C98 211.418 101.582 215 106 215H327C331.418 215 335 211.418 335 207V189C335 184.582 331.418 181 327 181Z" fill="white"/>
<path d="M327 229H106C101.582 229 98 232.582 98 237V255C98 259.418 101.582 263 106 263H327C331.418 263 335 259.418 335 255V237C335 232.582 331.418 229 327 229Z" fill="white"/>
<path d="M327 277H106C101.582 277 98 280.582 98 285V303C98 307.418 101.582 311 106 311H327C331.418 311 335 307.418 335 303V285C335 280.582 331.418 277 327 277Z" fill="white"/>
<mask id="mask2" style="mask-type:alpha" maskUnits="userSpaceOnUse" x="161" y="83" width="350" height="296">
<path d="M511 83.048H161.219V379H511V83.048Z" fill="white"/>
</mask>
<g mask="url(#mask2)">
<path fill-rule="evenodd" clip-rule="evenodd" d="M162.293 333.34C162.963 335.358 164.008 337.338 165.467 339.275C190.669 372.749 284.843 383.907 377.691 377.089C426.167 373.527 460.361 352.563 481.972 333.339C486.658 329.173 491.118 324.759 495.332 320.117C500.001 314.972 503.645 309.257 506.242 303.222C513.889 285.444 512.416 264.906 501.119 248.061C491.542 233.785 478.397 223.237 471.606 211.518C458.674 189.2 527.043 132.782 482.552 97.138C466.848 84.554 433.392 81.65 396.89 83.602C352.462 85.98 303.525 95.557 276.606 103.647C220.894 120.384 186.026 144.627 178.067 171.903C170.109 199.179 191.378 211.521 209.947 237.557C227.442 262.083 151.394 300.554 162.293 333.34" fill="#3A499E"/>
<path fill-rule="evenodd" clip-rule="evenodd" d="M256.451 173.872L273.436 171L276 186.799L255 193L256.451 173.872Z" fill="#306299"/>
<path fill-rule="evenodd" clip-rule="evenodd" d="M274 172.118C274 172.118 287.176 171.77 301 166L294.504 178.254L275.751 184L274 172.118Z" fill="#FA9E89"/>
<mask id="mask3" style="mask-type:alpha" maskUnits="userSpaceOnUse" x="351" y="85" width="158" height="220">
<path d="M509 85.048H351.175V304.892H509V85.048Z" fill="white"/>
</mask>
<g mask="url(#mask3)">
<path opacity="0.152" fill-rule="evenodd" clip-rule="evenodd" d="M351.934 137.186C360.046 177.345 497.94 238.876 504.57 304.892C511.688 287.14 510.317 266.634 499.8 249.814C490.886 235.559 478.65 225.027 472.329 213.325C460.29 191.043 523.934 134.707 482.519 99.117C467.9 86.552 436.758 83.652 402.779 85.602C392.435 87.966 344.615 100.933 351.934 137.186Z" fill="white"/>
</g>
<path opacity="0.149" fill-rule="evenodd" clip-rule="evenodd" d="M159.18 326C158.195 333.866 161.52 339.336 162.82 341.227C185.249 373.899 307.314 384.79 389.95 378.135C433.096 374.659 468.455 352.42 490 327.915L159.18 326Z" fill="black"/>
<path opacity="0.128" fill-rule="evenodd" clip-rule="evenodd" d="M437.373 329.812C437.373 329.812 447.45 330.422 447.295 333.472C447.14 336.522 440.784 343.23 440.784 343.23L450.293 339.825L479 338.732L475.9 341.401C475.9 341.401 452.773 342.468 451.74 343.281C450.706 344.094 437.476 354.057 435.203 354.463C432.929 354.87 288.515 354.688 288.515 354.688C288.515 354.688 273.657 355.277 271.176 350.702C268.696 346.128 259.704 346.432 257.223 350.397C254.743 354.362 255.087 369 255.087 369C255.087 369 248.294 367.227 247.921 367.069C224.356 357.106 198 326 198 326L437.373 329.812V329.812Z" fill="black"/>
<path fill-rule="evenodd" clip-rule="evenodd" d="M275.507 300.082L269.482 334.282L268.483 339.951L270.675 340.273L270.831 340.297L275.619 341C275.619 341 291.59 301.656 292.949 292.213C294.31 282.77 267.804 245 267.804 245L239.036 247.448C238.275 255.667 249.78 271.159 260.063 283.218C268.164 292.717 275.507 300.082 275.507 300.082" fill="#F4F2F9"/>
<path fill-rule="evenodd" clip-rule="evenodd" d="M275.12 298.535L268.243 338.302L270.389 338.623L270.462 339L270.542 338.648C271.417 334.818 281.682 300.911 281.994 294C282.327 286.674 267.967 264 267.967 264L260 281.714C267.93 291.188 275.12 298.534 275.12 298.534" fill="#E0DFEA"/>
<path fill-rule="evenodd" clip-rule="evenodd" d="M237 249L265.667 246.613L267 198.886C267 198.886 260 174 252.333 174C247.78 174 243.347 175.804 240.633 180.195C238.78 183.198 237.73 187.415 238 193.091C238.61 205.868 237.27 241.998 237.033 248.113C237.013 248.69 237 249 237 249" fill="#6397D9"/>
<path fill-rule="evenodd" clip-rule="evenodd" d="M244.885 245.276L244.347 188.458L251 174.938L243.237 174L240.508 177.21C238.718 180.213 237.705 184.43 237.966 190.104C238.555 202.878 237.229 239.886 237 246L244.885 245.276V245.276Z" fill="#8BBFF7"/>
<path fill-rule="evenodd" clip-rule="evenodd" d="M245 190L266.017 230L266.563 212.009L267 197.411L249.476 190H245Z" fill="#306299"/>
<path fill-rule="evenodd" clip-rule="evenodd" d="M298.671 353H427.33C432.119 353 436.001 349.092 436.001 344.27V123.73C436.001 118.908 432.119 115 427.33 115H298.67C293.881 115 289.999 118.908 289.999 123.73V344.27C289.999 349.092 293.881 353 298.67 353" fill="white"/>
<path fill-rule="evenodd" clip-rule="evenodd" d="M298 146.29V234.71C298 236.528 299.456 238 301.253 238H424.747C426.544 238 428 236.528 428 234.71V146.29C428 144.472 426.544 143 424.747 143H301.253C299.456 143 298 144.472 298 146.29Z" fill="#E4DCF1"/>
<path fill-rule="evenodd" clip-rule="evenodd" d="M362.147 167L363.699 168.183L367 182.554L366.929 184.921L361.702 185C361.347 185.005 360.989 184.935 360.672 184.75C359.177 183.872 358.539 181.425 359.364 179.257C359.808 178.091 360.945 176.027 361.077 175.115C361.391 172.931 362.147 167 362.147 167" fill="#8E2B43"/>
<path fill-rule="evenodd" clip-rule="evenodd" d="M335 241L389.224 240.792L391.019 240.786C391.019 240.786 397.506 210.137 387.003 198.325C384.445 195.451 381.12 193.332 377.497 191.955C366.224 187.658 352.044 190.5 349.004 199.921C344.988 212.372 335 241 335 241Z" fill="#4EC9B4"/>
<path fill-rule="evenodd" clip-rule="evenodd" d="M377.16 192.489C377.16 192.489 374.945 198.515 370.057 199.783C365.169 201.052 359.568 196.559 360.027 191.326C360.027 191.326 364.711 190.639 365.474 188.366C366.402 185.606 365.78 185.512 365.78 185.512C365.78 185.512 363.947 182.022 363.336 179.486C362.725 176.949 363.641 167.116 367.918 166.166C370.623 165.564 374.945 166.483 378 170.923C378 170.923 376.472 179.486 374.334 183.609C372.195 187.732 371.126 189.635 377.16 192.489Z" fill="#FA9E89"/>
<path opacity="0.184" fill-rule="evenodd" clip-rule="evenodd" d="M301.167 116.013L434 302.239V344.483C434 349.187 430.3 353 425.737 353H305.573C300.286 353 296 348.582 296 343.131V119.827C296 116.898 298.33 115.871 301.167 116.013" fill="#F4F2F9"/>
<path fill-rule="evenodd" clip-rule="evenodd" d="M341 222.442L334.018 192L323 193.816L333.684 238L341 222.442Z" fill="#4EC9B4"/>
<path fill-rule="evenodd" clip-rule="evenodd" d="M331.8 191.137L331.2 188.031C331.2 188.031 333 186.847 332.7 185.072C332.4 183.297 333 179.155 333 179.155C333 179.155 332.043 178.508 331.425 179.673C330.985 180.502 330.3 182.41 330.3 182.41C330.3 182.41 328.004 176.244 327.474 174.62C327.249 173.929 327.022 172.853 326.499 173.017C326.224 173.103 326.324 173.732 326.371 174.347C326.511 176.191 327.299 179.131 327.299 179.131L326.899 179.365L325.236 174.089C325.163 173.833 325.043 173.445 324.774 173.424C324.536 173.404 324.299 173.534 324.299 174.126C324.299 175.31 325.574 180.203 325.574 180.203L325.255 180.422L323.32 176.144C323.187 175.821 322.707 175.849 322.625 176.188C322.56 176.456 322.579 176.838 322.798 177.38C323.398 178.86 323.998 181.226 323.998 181.226L323.848 181.399L322.798 179.229C322.61 178.882 322.149 178.659 322.015 179.029C321.827 179.547 323.473 183.999 323.473 184.296C323.473 184.592 324.599 188.622 325.799 188.918C326.999 189.214 327.074 192 327.074 192L331.8 191.137V191.137Z" fill="#FA9E89"/>
<path fill-rule="evenodd" clip-rule="evenodd" d="M401.351 264H423.65C424.948 264 426.001 262.928 426.001 261.606V258.394C426.001 257.072 424.948 256 423.65 256H401.352C400.054 256 399.001 257.072 399.001 258.394V261.606C399.001 262.928 400.054 264 401.352 264H401.351ZM369.352 264H391.65C392.948 264 394.001 262.928 394.001 261.606V258.394C394.001 257.072 392.948 256 391.65 256H369.352C368.054 256 367.001 257.072 367.001 258.394V261.606C367.001 262.928 368.054 264 369.352 264ZM335.352 264H357.65C358.948 264 360.001 262.928 360.001 261.606V258.394C360.001 257.072 358.948 256 357.65 256H335.353C334.054 256 333.001 257.072 333.001 258.394V261.606C333.001 262.928 334.054 264 335.353 264H335.352ZM303.353 264H325.65C326.948 264 328.001 262.928 328.001 261.606V258.394C328.001 257.072 326.948 256 325.65 256H303.352C302.054 256 301.001 257.072 301.001 258.394V261.606C301.001 262.928 302.054 264 303.352 264" fill="#FFDEDD"/>
<path fill-rule="evenodd" clip-rule="evenodd" d="M305.547 283H423.453C424.86 283 426 281.92 426 280.59V277.41C426 276.08 424.86 275 423.453 275H305.547C304.14 275 303 276.08 303 277.41V280.59C303 281.92 304.14 283 305.547 283ZM423.453 299C424.86 299 426 297.92 426 296.59V293.41C426 292.08 424.86 291 423.453 291H305.547C304.14 291 303 292.08 303 293.41V296.59C303 297.92 304.14 299 305.547 299H423.453ZM305.547 315H423.453C424.86 315 426 313.92 426 312.59V309.41C426 308.08 424.86 307 423.453 307H305.547C304.14 307 303 308.08 303 309.41V312.59C303 313.92 304.14 315 305.547 315ZM305.547 328H423.453C424.86 328 426 326.92 426 325.59V322.41C426 321.08 424.86 320 423.453 320H305.547C304.14 320 303 321.08 303 322.41V325.59C303 326.92 304.14 328 305.547 328Z" fill="#F4F2F9"/>
<path fill-rule="evenodd" clip-rule="evenodd" d="M380.222 163.321C380.222 163.321 373.922 154.473 362.032 159.596C350.144 164.718 363.049 173.1 363.049 173.1C363.049 173.1 363.303 169.84 365.183 168.909L365.03 171.806L371.686 172.971L372.753 170.177L373.439 173.359L376.792 174.6C376.792 174.6 374.049 184.224 372.448 185.621C372.448 185.621 371.762 187.871 371.991 188.337C372.219 188.803 382.355 191.364 383.651 189.036C384.947 186.708 382.279 183.448 381.441 181.275C380.603 179.102 382.965 167.564 380.221 163.321" fill="#FC516B"/>
<path fill-rule="evenodd" clip-rule="evenodd" d="M409.352 139H426.648C427.947 139 429 137.657 429 136C429 134.343 427.947 133 426.648 133H409.352C408.053 133 407 134.343 407 136C407 137.657 408.053 139 409.352 139Z" fill="#E4DCF1"/>
<path fill-rule="evenodd" clip-rule="evenodd" d="M383 211C383 211 380.336 230.286 377.29 238H361.23C361.23 238 358.582 229.862 371.277 227.2C380.107 225.349 383 211 383 211ZM351.389 206C351.389 206 348.129 216 348.741 219C349.351 222 352 224.2 352 226.2C352 228.2 350.37 235.8 350.37 235.8L341 236C341 236 342.556 235.734 346.093 232.95C351.491 228.7 346.857 219.325 348.003 214C348.603 211.206 351.389 206 351.389 206V206ZM341 221.772C341 221.772 340.787 230.155 339.085 228.865C337.383 227.575 338.447 215.108 336.958 210.809C335.468 206.509 331 192.752 331 192.752L334.83 192L341 221.772Z" fill="#44AD99"/>
<path fill-rule="evenodd" clip-rule="evenodd" d="M315.623 183.475C315.623 183.475 314.047 184.167 312.123 186.521C311.487 187.301 308.093 188.542 307.29 189.509C295.645 203.529 280.094 214.35 270.127 210.042C257.397 204.54 255 199.424 255 199.424L263.414 188.062C263.414 188.062 273.077 202.821 280.848 198.801C288.62 194.781 303.94 184.244 303.94 184.244L304.346 177.78C304.346 177.78 305.241 177.54 305.67 178.775C306.1 180.011 306.12 181.079 306.12 181.079L312.169 174.055C312.169 174.055 313.331 173.695 312.977 174.824C312.623 175.954 310.486 179.192 310.486 179.192C310.486 179.192 310.266 179.808 310.729 179.527C311.269 179.2 315.495 174.435 315.495 174.435C315.495 174.435 316.468 174.371 316.071 175.301C315.764 176.018 313.206 179.391 312.341 180.655C312.083 181.031 312.623 180.89 312.623 180.89L316.119 177.92C316.592 177.601 317.082 177.707 316.989 178.288C316.914 178.748 315.962 179.807 315.396 180.227C313.982 181.273 312.996 183.179 312.996 183.179L316.04 182.079C316.04 182.079 316.635 182.607 315.623 183.475V183.475ZM244 146.49L247.85 174.81L260.496 177C260.496 177 259.856 176.332 259.124 175.44C258.376 174.533 257.534 173.39 257.161 172.474C256.311 170.37 256.305 168.408 256.305 168.408C256.305 168.408 261.913 169.041 262.782 165.813C263.654 162.581 261.639 147.529 261.639 147.529C261.639 147.529 259.136 138.07 244 146.49Z" fill="#FA9E89"/>
<path fill-rule="evenodd" clip-rule="evenodd" d="M254.613 146.812C254.613 146.812 260.849 151.522 266.832 147.51C266.832 147.51 263.04 147.16 261.86 145.242C261.86 145.242 264.22 145.852 267 141.928C267 141.928 262.113 142.626 260.428 141.143C258.742 139.66 250.148 137.305 245.008 140.881C239.867 144.457 239.951 147.074 239.951 147.074C239.951 147.074 236.918 148.207 237.001 149.952C237.086 151.696 244.501 166 244.501 166L246.102 159.633C246.102 159.633 244.838 160.011 244.08 157.046C243.322 154.08 246.608 155.359 246.945 155.97C247.282 156.58 249.473 151.783 249.473 151.783L249.136 148.993C249.136 148.993 248.04 145.416 254.613 146.813" fill="#261F27"/>
<path fill-rule="evenodd" clip-rule="evenodd" d="M242.786 279.384C246.377 293.871 239.736 351.793 239.736 351.793L246.234 353C272.394 292.985 266.41 244 266.41 244L237 246.414C237 246.414 237.075 245.19 237.106 245.48C237.444 248.488 239.514 266.169 242.786 279.384" fill="white"/>
<path fill-rule="evenodd" clip-rule="evenodd" d="M275.27 337.076L282.823 342.935C282.823 342.935 285.798 342.576 286.371 343.951C286.943 345.326 287 346.881 287 346.881L279.104 347L266 341.799L268.06 336L275.27 337.076ZM245.45 354.34C245.45 354.34 248.122 358.662 250.815 362.192C251.72 363.378 253.932 363.893 254.793 366.787C255.533 369.277 254.053 371 254.053 371C254.053 371 249.088 370.106 245.634 367.043C242.181 363.979 237 358.106 237 358.106L238.418 353L245.449 354.34H245.45Z" fill="#6397D9"/>
<path fill-rule="evenodd" clip-rule="evenodd" d="M257.185 177.105C257.185 177.105 246.633 177.277 245.691 176L245 177.898C245 177.898 253.36 182.455 259 180.522L257.185 177.105V177.105Z" fill="#306299"/>
<path fill-rule="evenodd" clip-rule="evenodd" d="M272 190.916L259.412 205C259.412 205 242.59 189.918 243.008 185.19C243.425 180.463 249.588 170.675 259.042 179.667C268.24 188.415 272 190.916 272 190.916Z" fill="#8CC5F2"/>
<path fill-rule="evenodd" clip-rule="evenodd" d="M239.565 352.654L242.131 353C242.131 353 254.157 310.53 250.201 279.153C249.012 269.719 244.857 246 244.857 246L237 246.737C237.318 249.76 239.357 266.592 242.426 279.874C245.793 294.436 239.566 352.654 239.566 352.654" fill="#F4F2F9"/>
<path fill-rule="evenodd" clip-rule="evenodd" d="M253.253 175.558C254.741 175.882 255.552 175.985 256 176C255.302 175.034 254.516 173.818 254.168 172.842C253.375 170.601 253.369 168.512 253.369 168.512C253.369 168.512 250.398 167.73 250.092 168.099C249.788 168.467 250.092 174.869 253.253 175.558" fill="#E6846F"/>
<path fill-rule="evenodd" clip-rule="evenodd" d="M399 179C399 189.492 407.048 198 416.973 198C421.129 198 424.954 196.509 428 194.004V163.996C424.954 161.49 421.13 160 416.973 160C407.048 160 399 168.508 399 179Z" fill="#CEC3E2"/>
<path fill-rule="evenodd" clip-rule="evenodd" d="M399 179.5C399 189.716 406.493 198 415.734 198C419.604 198 423.164 196.548 426 194.11V164.89C423.165 162.453 419.603 161 415.734 161C406.493 161 399 169.284 399 179.5Z" fill="#C3B8D8"/>
<path fill-rule="evenodd" clip-rule="evenodd" d="M373 196.096C373 196.096 374.985 194.992 375.298 194.791C375.612 194.592 379.688 195.693 385.124 201.307C390.557 206.921 385.854 211.631 388.152 214.637C390.453 217.645 388.259 223.96 387.108 228.272C385.958 232.582 387.108 237.994 387.108 237.994L387.168 238L388.989 237.994C388.989 237.994 395.573 209.126 384.914 197.999C382.318 195.293 378.944 193.296 375.267 192L373 196.096Z" fill="#44AD99"/>
</g>
</g>
</svg>
